<?xml version="1.0" encoding="UTF-8" standalone="no"?>
<!DOCTYPE svg PUBLIC "-//W3C//DTD SVG 1.1//EN"
 "http://www.w3.org/Graphics/SVG/1.1/DTD/svg11.dtd">
<!-- Generated by graphviz version 14.1.5 (20260411.2331)
 -->
<!-- Title: G Pages: 1 -->
<svg width="1610pt" height="93pt"
 viewBox="0.00 0.00 1610.00 93.00" xmlns="http://www.w3.org/2000/svg" xmlns:xlink="http://www.w3.org/1999/xlink">
<g id="graph0" class="graph" transform="scale(1 1) rotate(0) translate(14.4 78.65)">
<title>G</title>
<!-- device -->
<g id="node1" class="node">
<title>device</title>
<path fill="#dbeafe" stroke="#4b5563" d="M90.25,-54.88C90.25,-54.88 12,-54.88 12,-54.88 6,-54.88 0,-48.88 0,-42.88 0,-42.88 0,-21.38 0,-21.38 0,-15.38 6,-9.38 12,-9.38 12,-9.38 90.25,-9.38 90.25,-9.38 96.25,-9.38 102.25,-15.38 102.25,-21.38 102.25,-21.38 102.25,-42.88 102.25,-42.88 102.25,-48.88 96.25,-54.88 90.25,-54.88"/>
<text xml:space="preserve" text-anchor="middle" x="51.12" y="-37.58" font-family="Microsoft YaHei" font-size="14.00">新接入设备</text>
<text xml:space="preserve" text-anchor="middle" x="51.12" y="-18.82" font-family="Microsoft YaHei" font-size="14.00">手机 / 笔记本</text>
</g>
<!-- dhcp -->
<g id="node2" class="node">
<title>dhcp</title>
<path fill="#dcfce7" stroke="#4b5563" d="M300.75,-64.25C300.75,-64.25 163.25,-64.25 163.25,-64.25 157.25,-64.25 151.25,-58.25 151.25,-52.25 151.25,-52.25 151.25,-12 151.25,-12 151.25,-6 157.25,0 163.25,0 163.25,0 300.75,0 300.75,0 306.75,0 312.75,-6 312.75,-12 312.75,-12 312.75,-52.25 312.75,-52.25 312.75,-58.25 306.75,-64.25 300.75,-64.25"/>
<text xml:space="preserve" text-anchor="middle" x="232" y="-46.95" font-family="Microsoft YaHei" font-size="14.00">DHCP</text>
<text xml:space="preserve" text-anchor="middle" x="232" y="-28.2" font-family="Microsoft YaHei" font-size="14.00">获取本机 IP</text>
<text xml:space="preserve" text-anchor="middle" x="232" y="-9.45" font-family="Microsoft YaHei" font-size="14.00">子网掩码 / 网关 / DNS</text>
</g>
<!-- device&#45;&gt;dhcp -->
<g id="edge1" class="edge">
<title>device&#45;&gt;dhcp</title>
<path fill="none" stroke="#64748b" d="M102.43,-32.12C114.69,-32.12 128.17,-32.12 141.64,-32.12"/>
<polygon fill="#64748b" stroke="#64748b" points="141.44,-34.93 149.44,-32.13 141.44,-29.33 141.44,-34.93"/>
</g>
<!-- user -->
<g id="node3" class="node">
<title>user</title>
<path fill="#f8fafc" stroke="#4b5563" d="M489.5,-54.88C489.5,-54.88 373.75,-54.88 373.75,-54.88 367.75,-54.88 361.75,-48.88 361.75,-42.88 361.75,-42.88 361.75,-21.38 361.75,-21.38 361.75,-15.38 367.75,-9.38 373.75,-9.38 373.75,-9.38 489.5,-9.38 489.5,-9.38 495.5,-9.38 501.5,-15.38 501.5,-21.38 501.5,-21.38 501.5,-42.88 501.5,-42.88 501.5,-48.88 495.5,-54.88 489.5,-54.88"/>
<text xml:space="preserve" text-anchor="middle" x="431.62" y="-37.58" font-family="Microsoft YaHei" font-size="14.00">浏览器输入域名</text>
<text xml:space="preserve" text-anchor="middle" x="431.62" y="-18.82" font-family="Microsoft YaHei" font-size="14.00">www.example.com</text>
</g>
<!-- dhcp&#45;&gt;user -->
<g id="edge2" class="edge">
<title>dhcp&#45;&gt;user</title>
<path fill="none" stroke="#64748b" d="M313.1,-32.12C326.01,-32.12 339.37,-32.12 352.24,-32.12"/>
<polygon fill="#64748b" stroke="#64748b" points="352,-34.93 360,-32.13 352,-29.33 352,-34.93"/>
</g>
<!-- dns -->
<g id="node4" class="node">
<title>dns</title>
<path fill="#fef3c7" stroke="#4b5563" d="M653.5,-54.88C653.5,-54.88 562.5,-54.88 562.5,-54.88 556.5,-54.88 550.5,-48.88 550.5,-42.88 550.5,-42.88 550.5,-21.38 550.5,-21.38 550.5,-15.38 556.5,-9.38 562.5,-9.38 562.5,-9.38 653.5,-9.38 653.5,-9.38 659.5,-9.38 665.5,-15.38 665.5,-21.38 665.5,-21.38 665.5,-42.88 665.5,-42.88 665.5,-48.88 659.5,-54.88 653.5,-54.88"/>
<text xml:space="preserve" text-anchor="middle" x="608" y="-37.58" font-family="Microsoft YaHei" font-size="14.00">DNS</text>
<text xml:space="preserve" text-anchor="middle" x="608" y="-18.82" font-family="Microsoft YaHei" font-size="14.00">域名 &#45;&gt; IP 地址</text>
</g>
<!-- user&#45;&gt;dns -->
<g id="edge3" class="edge">
<title>user&#45;&gt;dns</title>
<path fill="none" stroke="#64748b" d="M501.79,-32.12C514.72,-32.12 528.21,-32.12 541.04,-32.12"/>
<polygon fill="#64748b" stroke="#64748b" points="540.74,-34.93 548.74,-32.13 540.74,-29.33 540.74,-34.93"/>
</g>
<!-- transport -->
<g id="node5" class="node">
<title>transport</title>
<path fill="#ede9fe" stroke="#4b5563" d="M859.5,-54.88C859.5,-54.88 726.5,-54.88 726.5,-54.88 720.5,-54.88 714.5,-48.88 714.5,-42.88 714.5,-42.88 714.5,-21.38 714.5,-21.38 714.5,-15.38 720.5,-9.38 726.5,-9.38 726.5,-9.38 859.5,-9.38 859.5,-9.38 865.5,-9.38 871.5,-15.38 871.5,-21.38 871.5,-21.38 871.5,-42.88 871.5,-42.88 871.5,-48.88 865.5,-54.88 859.5,-54.88"/>
<text xml:space="preserve" text-anchor="middle" x="793" y="-37.58" font-family="Microsoft YaHei" font-size="14.00">传输层连接</text>
<text xml:space="preserve" text-anchor="middle" x="793" y="-18.82" font-family="Microsoft YaHei" font-size="14.00">HTTP:80 / HTTPS:443</text>
</g>
<!-- dns&#45;&gt;transport -->
<g id="edge4" class="edge">
<title>dns&#45;&gt;transport</title>
<path fill="none" stroke="#64748b" d="M665.9,-32.12C678.35,-32.12 691.79,-32.12 705.11,-32.12"/>
<polygon fill="#64748b" stroke="#64748b" points="704.78,-34.93 712.78,-32.13 704.78,-29.33 704.78,-34.93"/>
</g>
<!-- httpReq -->
<g id="node6" class="node">
<title>httpReq</title>
<path fill="#e0f2fe" stroke="#4b5563" d="M1052.75,-54.88C1052.75,-54.88 932.5,-54.88 932.5,-54.88 926.5,-54.88 920.5,-48.88 920.5,-42.88 920.5,-42.88 920.5,-21.38 920.5,-21.38 920.5,-15.38 926.5,-9.38 932.5,-9.38 932.5,-9.38 1052.75,-9.38 1052.75,-9.38 1058.75,-9.38 1064.75,-15.38 1064.75,-21.38 1064.75,-21.38 1064.75,-42.88 1064.75,-42.88 1064.75,-48.88 1058.75,-54.88 1052.75,-54.88"/>
<text xml:space="preserve" text-anchor="middle" x="992.62" y="-37.58" font-family="Microsoft YaHei" font-size="14.00">HTTP 请求</text>
<text xml:space="preserve" text-anchor="middle" x="992.62" y="-18.82" font-family="Microsoft YaHei" font-size="14.00">方法 / URL / 请求头</text>
</g>
<!-- transport&#45;&gt;httpReq -->
<g id="edge5" class="edge">
<title>transport&#45;&gt;httpReq</title>
<path fill="none" stroke="#64748b" d="M871.82,-32.12C884.69,-32.12 898.05,-32.12 910.98,-32.12"/>
<polygon fill="#64748b" stroke="#64748b" points="910.79,-34.93 918.79,-32.13 910.79,-29.33 910.79,-34.93"/>
</g>
<!-- httpResp -->
<g id="node7" class="node">
<title>httpResp</title>
<path fill="#e0f2fe" stroke="#4b5563" d="M1352.25,-54.88C1352.25,-54.88 1202,-54.88 1202,-54.88 1196,-54.88 1190,-48.88 1190,-42.88 1190,-42.88 1190,-21.38 1190,-21.38 1190,-15.38 1196,-9.38 1202,-9.38 1202,-9.38 1352.25,-9.38 1352.25,-9.38 1358.25,-9.38 1364.25,-15.38 1364.25,-21.38 1364.25,-21.38 1364.25,-42.88 1364.25,-42.88 1364.25,-48.88 1358.25,-54.88 1352.25,-54.88"/>
<text xml:space="preserve" text-anchor="middle" x="1277.12" y="-37.58" font-family="Microsoft YaHei" font-size="14.00">HTTP 响应</text>
<text xml:space="preserve" text-anchor="middle" x="1277.12" y="-18.82" font-family="Microsoft YaHei" font-size="14.00">状态码 / 响应头 / 响应体</text>
</g>
<!-- httpReq&#45;&gt;httpResp -->
<g id="edge6" class="edge">
<title>httpReq&#45;&gt;httpResp</title>
<path fill="none" stroke="#64748b" d="M1064.91,-32.12C1099.87,-32.12 1142.48,-32.12 1180.24,-32.12"/>
<polygon fill="#64748b" stroke="#64748b" points="1180.22,-34.93 1188.22,-32.13 1180.22,-29.33 1180.22,-34.93"/>
</g>
<!-- httpReq&#45;&gt;httpResp -->
<g id="edge8" class="edge">
<title>httpReq&#45;&gt;httpResp</title>
<path fill="none" stroke="#64748b" d="M1065.19,-11.65C1073.09,-10 1081.05,-8.6 1088.75,-7.62 1122.81,-3.31 1131.87,-3.87 1166,-7.62 1170.69,-8.14 1175.46,-8.77 1180.28,-9.5"/>
<polygon fill="#64748b" stroke="#64748b" points="1179.72,-12.25 1188.06,-10.77 1180.61,-6.72 1179.72,-12.25"/>
<text xml:space="preserve" text-anchor="middle" x="1127.38" y="-12.72" font-family="Microsoft YaHei" font-size="12.00">请求&#45;响应模式</text>
</g>
<!-- page -->
<g id="node8" class="node">
<title>page</title>
<path fill="#dbeafe" stroke="#4b5563" d="M1569.5,-54.88C1569.5,-54.88 1425.25,-54.88 1425.25,-54.88 1419.25,-54.88 1413.25,-48.88 1413.25,-42.88 1413.25,-42.88 1413.25,-21.38 1413.25,-21.38 1413.25,-15.38 1419.25,-9.38 1425.25,-9.38 1425.25,-9.38 1569.5,-9.38 1569.5,-9.38 1575.5,-9.38 1581.5,-15.38 1581.5,-21.38 1581.5,-21.38 1581.5,-42.88 1581.5,-42.88 1581.5,-48.88 1575.5,-54.88 1569.5,-54.88"/>
<text xml:space="preserve" text-anchor="middle" x="1497.38" y="-37.58" font-family="Microsoft YaHei" font-size="14.00">浏览器解析</text>
<text xml:space="preserve" text-anchor="middle" x="1497.38" y="-18.82" font-family="Microsoft YaHei" font-size="14.00">HTML / CSS / JS / 图片</text>
</g>
<!-- httpResp&#45;&gt;page -->
<g id="edge7" class="edge">
<title>httpResp&#45;&gt;page</title>
<path fill="none" stroke="#64748b" d="M1364.7,-32.12C1377.43,-32.12 1390.6,-32.12 1403.46,-32.12"/>
<polygon fill="#64748b" stroke="#64748b" points="1403.24,-34.93 1411.24,-32.13 1403.24,-29.33 1403.24,-34.93"/>
</g>
</g>
</svg>
